<?xml version="1.0" standalone="no"?>
<!DOCTYPE svg PUBLIC "-//W3C//DTD SVG 20010904//EN"
 "http://www.w3.org/TR/2001/REC-SVG-20010904/DTD/svg10.dtd">
<svg version="1.0" xmlns="http://www.w3.org/2000/svg"
 width="347.000000pt" height="499.000000pt" viewBox="0 0 347.000000 499.000000"
 preserveAspectRatio="xMidYMid meet">
<metadata>
Created by potrace 1.10, written by Peter Selinger 2001-2011
</metadata>
<g transform="translate(0.000000,499.000000) scale(0.050000,-0.050000)"
fill="#000000" stroke="none">
<path d="M3743 9500 c-97 -23 -105 -38 -130 -240 l-23 -183 -110 -45 -110 -45
-121 94 c-199 154 -255 162 -348 50 -22 -26 -88 -31 -433 -31 l-407 0 -34 -52
c-81 -124 -18 -157 309 -164 156 -3 284 -10 284 -16 0 -7 -36 -53 -80 -103
-107 -121 -103 -159 32 -328 l113 -141 -47 -103 c-60 -130 -53 -126 -238 -142
-240 -21 -257 -53 -258 -471 -1 -397 19 -430 258 -451 185 -16 178 -12 237
-141 l47 -102 -112 -145 c-126 -163 -133 -196 -62 -289 57 -75 65 -122 18
-104 -17 7 -287 12 -600 12 l-568 0 0 1346 c0 1443 4 1394 -103 1394 -121 0
-117 48 -117 -1480 0 -1608 -17 -1480 191 -1480 l129 0 0 -596 c0 -704 -26
-644 274 -644 l226 0 0 -349 c0 -434 -12 -415 268 -409 l202 3 10 -548 10
-549 159 -174 c208 -227 215 -227 423 -9 l158 165 10 558 10 558 219 2 c282 3
273 -12 269 422 l-4 320 217 6 c287 7 269 -20 269 406 l0 358 75 0 c82 1 221
29 241 49 7 7 27 98 43 203 l31 189 104 48 104 48 155 -118 c85 -66 167 -119
181 -119 47 0 334 249 460 400 142 169 151 210 70 304 -31 36 -82 100 -113
141 l-56 75 45 109 c49 122 52 124 254 142 102 10 154 25 178 51 82 91 82 725
0 816 -24 26 -75 42 -168 51 -214 22 -216 24 -265 143 l-44 109 113 147 c61
80 112 162 112 181 0 98 -491 591 -588 591 -14 0 -89 -49 -167 -110 -159 -124
-165 -125 -290 -70 l-89 39 -24 176 c-29 212 -35 223 -134 246 -94 22 -571 21
-665 -1z m480 -200 l94 0 13 -135 c22 -229 37 -258 156 -297 57 -18 146 -55
198 -81 125 -62 121 -63 278 63 167 135 138 139 323 -45 182 -181 177 -159 68
-302 -142 -186 -142 -185 -75 -318 32 -64 68 -154 81 -201 27 -101 52 -114
265 -134 174 -16 176 -19 176 -260 0 -240 -2 -243 -173 -258 -211 -20 -241
-34 -268 -136 -13 -47 -49 -137 -81 -200 -73 -145 -77 -125 52 -291 61 -78
110 -149 110 -159 0 -40 -316 -331 -343 -315 -15 10 -82 60 -150 113 -141 111
-152 112 -269 48 -49 -26 -135 -63 -192 -81 -119 -38 -134 -67 -156 -296 l-13
-135 -104 -2 c-140 -4 -361 4 -370 12 -4 4 -16 82 -27 174 -21 177 -47 225
-132 245 -30 8 -116 42 -191 76 -156 71 -144 74 -342 -82 l-109 -87 -102 86
c-55 47 -132 123 -170 169 l-68 84 109 137 c119 149 129 191 71 292 -22 36
-54 113 -72 170 -45 138 -65 151 -267 175 l-173 21 0 240 0 240 173 21 c202
24 222 37 267 175 18 57 50 134 72 170 57 100 48 141 -70 293 l-108 139 77 91
c42 50 118 125 168 167 l92 76 143 -111 c169 -131 154 -129 339 -41 80 39 160
70 178 70 55 0 93 65 107 180 30 248 24 237 139 246 57 4 121 4 143 1 22 -4
82 -7 133 -7z m-610 -3382 c27 -215 39 -230 204 -248 62 -7 121 -15 131 -17 9
-3 17 -124 17 -269 l0 -265 -1142 -5 -1143 -4 0 116 0 116 531 -3 c572 -3 589
0 589 100 0 118 -23 123 -593 120 l-517 -3 -6 292 -5 292 553 0 554 0 82 -67
c168 -137 178 -136 391 34 l109 87 111 -45 111 -45 23 -186z m-143 -1288 l0
-271 -646 6 -646 5 0 250 c0 138 0 257 1 265 0 8 291 15 646 15 l645 0 0 -270z
m-491 -990 l0 -510 -70 -75 c-85 -92 -80 -92 -173 -1 l-76 74 0 503 c0 584
-21 519 168 519 l152 0 -1 -510z"/>
<path d="M3848 8610 c-820 -178 -1093 -1232 -467 -1798 664 -599 1739 -118
1739 778 0 668 -617 1163 -1272 1020z m396 -212 c356 -75 631 -394 652 -758
44 -765 -879 -1170 -1407 -617 -559 586 -35 1540 755 1375z"/>
<path d="M3844 8068 c-330 -164 -404 -590 -147 -847 340 -339 917 -104 912
371 -5 393 -417 650 -765 476z m397 -213 c257 -173 144 -575 -161 -575 -176 0
-310 134 -310 310 0 243 274 397 471 265z"/>
<path d="M3144 5529 c-132 -93 -39 -191 187 -196 233 -5 332 85 212 194 -50
45 -334 47 -399 2z"/>
<path d="M1533 9063 c-91 -100 -13 -183 172 -183 181 0 261 94 158 187 -54 49
-285 46 -330 -4z"/>
<path d="M789 3131 c-60 -60 -60 -71 -8 -138 l42 -53 654 0 c723 0 743 3 743
120 0 117 -21 120 -735 120 l-647 0 -49 -49z"/>
<path d="M3580 3165 c-81 -32 -101 -124 -40 -185 38 -38 67 -40 700 -40 719 0
740 3 740 120 0 117 -22 120 -725 118 -355 0 -658 -6 -675 -13z"/>
<path d="M1107 2488 c-25 -39 -29 -64 -15 -105 l19 -53 1737 -5 c1857 -6 1792
-9 1792 96 0 126 108 119 -1781 119 l-1718 0 -34 -52z"/>
</g>
</svg>
